<?xml version="1.0" encoding="UTF-8" standalone="no"?>
<svg
   xmlns:dc="http://purl.org/dc/elements/1.1/"
   xmlns:cc="http://creativecommons.org/ns#"
   xmlns:rdf="http://www.w3.org/1999/02/22-rdf-syntax-ns#"
   xmlns:svg="http://www.w3.org/2000/svg"
   xmlns="http://www.w3.org/2000/svg"
   xmlns:xlink="http://www.w3.org/1999/xlink"
   xmlns:sodipodi="http://sodipodi.sourceforge.net/DTD/sodipodi-0.dtd"
   xmlns:inkscape="http://www.inkscape.org/namespaces/inkscape"
   version="1.0"
   x="0px"
   y="0px"
   width="576"
   height="576"
   viewBox="0 0 576 576"
   enable-background="new 0 0 96 96"
   xml:space="preserve"
   id="svg2"
   inkscape:version="0.48.3.1 r9886"
   sodipodi:docname="flightmode_on.svg"
   inkscape:export-filename="flightmode_on.png"
   inkscape:export-xdpi="90"
   inkscape:export-ydpi="90"><metadata
   id="metadata11"><rdf:RDF><cc:Work
       rdf:about=""><dc:format>image/svg+xml</dc:format><dc:type
         rdf:resource="http://purl.org/dc/dcmitype/StillImage" /><dc:title></dc:title><cc:license
         rdf:resource="" /></cc:Work></rdf:RDF></metadata><defs
   id="defs9"><linearGradient
     id="linearGradient3844"><stop
       style="stop-color:#ffffff;stop-opacity:0"
       offset="0"
       id="stop3846" /><stop
       style="stop-color:#ffffff;stop-opacity:0.66086954;"
       offset="1"
       id="stop3848" /></linearGradient><linearGradient
     id="linearGradient3775"><stop
       style="stop-color:#19334d;stop-opacity:1;"
       offset="0"
       id="stop3777" /><stop
       id="stop3787"
       offset="0.67787057"
       style="stop-color:#7493b2;stop-opacity:1;" /><stop
       id="stop3785"
       offset="0.86454225"
       style="stop-color:#9fb6cc;stop-opacity:1;" /><stop
       style="stop-color:#ffffff;stop-opacity:1;"
       offset="1"
       id="stop3779" /></linearGradient><linearGradient
     inkscape:collect="always"
     xlink:href="#linearGradient3775"
     id="linearGradient3781"
     x1="283.09393"
     y1="379.74771"
     x2="288.59082"
     y2="554.14734"
     gradientUnits="userSpaceOnUse"
     gradientTransform="matrix(1.0454068,0,0,1.0501548,-15.402585,-15.90875)" /><filter
     inkscape:collect="always"
     id="filter3795"><feGaussianBlur
       inkscape:collect="always"
       stdDeviation="4.1367903"
       id="feGaussianBlur3797" /></filter><filter
     color-interpolation-filters="sRGB"
     inkscape:collect="always"
     id="filter3795-0"><feGaussianBlur
       inkscape:collect="always"
       stdDeviation="4.1367903"
       id="feGaussianBlur3797-7" /></filter><linearGradient
     inkscape:collect="always"
     xlink:href="#linearGradient3844"
     id="linearGradient3943"
     x1="218.61232"
     y1="2.0969009"
     x2="301.97015"
     y2="531.27057"
     gradientUnits="userSpaceOnUse"
     gradientTransform="translate(-15,-15)" /></defs><sodipodi:namedview
   pagecolor="#ffffff"
   bordercolor="#666666"
   borderopacity="1"
   objecttolerance="10"
   gridtolerance="10"
   guidetolerance="20"
   inkscape:pageopacity="0"
   inkscape:pageshadow="2"
   inkscape:window-width="1024"
   inkscape:window-height="580"
   id="namedview7"
   showgrid="false"
   inkscape:zoom="0.5"
   inkscape:cx="135"
   inkscape:cy="332.79412"
   inkscape:window-x="-4"
   inkscape:window-y="-4"
   inkscape:window-maximized="1"
   inkscape:current-layer="layer3"
   borderlayer="false"
   showborder="true"
   inkscape:showpageshadow="true"
   showguides="true"
   inkscape:guide-bbox="true"
   inkscape:snap-global="false"><sodipodi:guide
     orientation="0,1"
     position="0,70"
     id="guide2987" /><sodipodi:guide
     orientation="0,1"
     position="0,506"
     id="guide2989" /><sodipodi:guide
     orientation="1,0"
     position="70,506"
     id="guide2991" /><sodipodi:guide
     orientation="1,0"
     position="506,0"
     id="guide2993" /></sodipodi:namedview>

<g
   inkscape:groupmode="layer"
   id="layer1"
   inkscape:label="background_blue_shaded"
   style="display:inline"
   sodipodi:insensitive="true"><rect
     ry="43.824276"
     y="81.625206"
     x="79.109413"
     height="413.25864"
     width="414.09943"
     id="rect3789"
     style="fill:#000017;fill-opacity:1;stroke:none;filter:url(#filter3795)"
     transform="matrix(1.0454068,0,0,1.0501548,-2.8577033,-3.3068914)" /><rect
     style="fill:url(#linearGradient3781);fill-opacity:1;stroke:none"
     id="rect3075"
     width="432.90234"
     height="433.98557"
     x="70.43515"
     y="69.810356"
     ry="46.022274" /></g><g
   inkscape:groupmode="layer"
   id="layer3"
   inkscape:label="plane_yellow"
   style="display:inline"
   sodipodi:insensitive="true"><path
     style="fill:#e3e900;fill-opacity:0.91304351;stroke:#ffffff;stroke-width:19;stroke-linejoin:round;stroke-miterlimit:4;stroke-opacity:1;stroke-dasharray:none;display:inline"
     d="m 441.3056,140.28024 c -13.04749,-13.97268 -40.18063,-13.14422 -58.24759,3.6472 -18.06695,16.79142 -39.57731,42.70188 -60.76732,62.68826 -50.86037,-9.43094 -98.5609,-31.82143 -150.08294,-38.22304 -19.27897,2.74714 -42.65978,23.60437 -33.00419,44.23484 13.11552,13.13602 33.62651,14.82866 49.63257,23.61298 26.81683,10.86469 53.65261,21.68259 80.46574,32.55642 -17.91051,22.43587 -38.53861,42.46649 -58.49099,63.04299 -25.42055,-3.20443 -49.37739,-24.13096 -75.69938,-13.93138 -15.61183,18.98678 7.19937,41.93094 24.67151,49.57736 20.08567,10.62195 40.00668,24.1747 49.51464,45.63567 9.52032,17.67257 22.37491,40.33054 45.42021,39.68571 20.51148,-6.12959 11.71397,-33.5469 6.23737,-48.12253 -7.41828,-16.00963 -16.53627,-36.57717 3.57687,-46.88277 15.79846,-15.49091 31.7009,-30.94591 49.00814,-44.76668 17.13018,42.24026 34.12156,84.53687 51.37573,126.72679 16.56549,16.03681 39.93488,-3.63675 46.71122,-20.1658 6.60099,-22.52816 -6.8259,-44.04221 -10.04062,-65.98134 -8.70015,-31.1612 -20.18772,-61.6244 -25.86513,-93.56847 26.77686,-28.94602 41.79106,-42.18617 58.22506,-63.9065 16.43399,-21.72033 20.40659,-41.88704 7.3591,-55.85971 z"
     id="path5-1"
     inkscape:connector-curvature="0"
     sodipodi:nodetypes="zzccccccccccccccccczz" /></g><g
   inkscape:groupmode="layer"
   id="layer2"
   inkscape:label="glass_glow"
   style="display:inline"
   sodipodi:insensitive="true"><path
     style="fill:url(#linearGradient3943);fill-opacity:1;stroke:none;display:inline;filter:url(#filter3795-0)"
     d="m 116.9375,75.624997 c -24.27865,0 -43.8125,19.533853 -43.8125,43.812503 l 0,106.13561 c 69.85146,36.42765 155.2722,45.42165 245.1875,33.11439 59.62058,-8.16064 124.38322,-42.22715 166.73251,-72.62408 l -3.82626,-75.62592 c -0.35646,-7.04551 -1.6568,-13.70186 -4.59375,-19.59375 -8.02481,-9.32703 -19.92438,-15.218753 -33.25,-15.218753 z"
     id="rect3904"
     inkscape:connector-curvature="0"
     transform="matrix(1.0454068,0,0,1.0501548,-2.8577033,-3.3068914)"
     sodipodi:nodetypes="sscscscss" /></g></svg>